<svg width="282" height="54" viewBox="0 0 282 54" fill="none" xmlns="http://www.w3.org/2000/svg">
<path d="M26.1973 23.5043L19.2726 23.9304C19.1542 23.3385 18.8997 22.8059 18.5091 22.3324C18.1185 21.8471 17.6036 21.4624 16.9644 21.1783C16.337 20.8823 15.5854 20.7344 14.7094 20.7344C13.5375 20.7344 12.5491 20.983 11.7442 21.4801C10.9393 21.9654 10.5368 22.6165 10.5368 23.4332C10.5368 24.0843 10.7972 24.6347 11.3181 25.0845C11.8389 25.5343 12.7326 25.8954 13.9992 26.1676L18.9353 27.1619C21.5868 27.7064 23.5636 28.5824 24.8657 29.7898C26.1677 30.9972 26.8188 32.5833 26.8188 34.5483C26.8188 36.3357 26.292 37.9041 25.2385 39.2536C24.1969 40.603 22.7646 41.6565 20.9417 42.4141C19.1306 43.1598 17.0413 43.5327 14.6739 43.5327C11.0636 43.5327 8.18715 42.781 6.04463 41.2777C3.91395 39.7625 2.66514 37.7029 2.29819 35.0987L9.73782 34.7081C9.96272 35.8089 10.5072 36.6494 11.3713 37.2294C12.2354 37.7976 13.3422 38.0817 14.6917 38.0817C16.0174 38.0817 17.0828 37.8272 17.8877 37.3182C18.7044 36.7973 19.1187 36.1286 19.1306 35.3118C19.1187 34.6252 18.8287 34.063 18.2605 33.625C17.6924 33.1752 16.8164 32.8319 15.6327 32.5952L10.9097 31.6541C8.24634 31.1214 6.26362 30.1982 4.96154 28.8842C3.67129 27.5703 3.02617 25.8954 3.02617 23.8594C3.02617 22.1075 3.49965 20.5982 4.44662 19.3317C5.40543 18.0651 6.74894 17.0885 8.47716 16.402C10.2172 15.7154 12.2532 15.3722 14.5851 15.3722C18.0297 15.3722 20.7404 16.1001 22.7172 17.5561C24.7059 19.0121 25.8659 20.9948 26.1973 23.5043ZM29.9817 53.2273V15.7273H37.4391V20.3082H37.7765C38.1079 19.5743 38.5873 18.8286 39.2147 18.071C39.8539 17.3016 40.6825 16.6624 41.7005 16.1534C42.7303 15.6326 44.0087 15.3722 45.5357 15.3722C47.5244 15.3722 49.3591 15.893 51.04 16.9347C52.7209 17.9645 54.0644 19.5211 55.0705 21.6044C56.0767 23.6759 56.5798 26.2741 56.5798 29.3991C56.5798 32.4413 56.0885 35.0099 55.106 37.1051C54.1354 39.1884 52.8096 40.7687 51.1288 41.8459C49.4597 42.9112 47.5895 43.4439 45.518 43.4439C44.0502 43.4439 42.8013 43.2012 41.7715 42.7159C40.7535 42.2306 39.919 41.621 39.268 40.8871C38.6169 40.1413 38.1198 39.3897 37.7765 38.6321H37.5457V53.2273H29.9817ZM37.3859 29.3636C37.3859 30.9853 37.6108 32.3999 38.0606 33.6072C38.5104 34.8146 39.1614 35.7557 40.0137 36.4304C40.866 37.0933 41.9017 37.4247 43.1209 37.4247C44.352 37.4247 45.3937 37.0874 46.2459 36.4126C47.0982 35.7261 47.7433 34.7791 48.1813 33.5717C48.6311 32.3525 48.856 30.9498 48.856 29.3636C48.856 27.7893 48.637 26.4044 48.1991 25.2088C47.7611 24.0133 47.116 23.0781 46.2637 22.4034C45.4114 21.7287 44.3638 21.3913 43.1209 21.3913C41.8899 21.3913 40.8482 21.7169 39.9959 22.3679C39.1555 23.0189 38.5104 23.9422 38.0606 25.1378C37.6108 26.3333 37.3859 27.742 37.3859 29.3636ZM60.0224 43V15.7273H67.3555V20.4858H67.6396C68.1367 18.7931 68.9712 17.5147 70.1431 16.6506C71.315 15.7746 72.6644 15.3366 74.1914 15.3366C74.5702 15.3366 74.9786 15.3603 75.4165 15.4077C75.8545 15.455 76.2392 15.5201 76.5707 15.603V22.3146C76.2156 22.2081 75.7243 22.1134 75.0969 22.0305C74.4696 21.9477 73.8955 21.9062 73.3746 21.9062C72.262 21.9062 71.2676 22.1489 70.3917 22.6342C69.5276 23.1077 68.841 23.7706 68.332 24.6229C67.8349 25.4751 67.5863 26.4576 67.5863 27.5703V43H60.0224ZM78.8814 43V15.7273H86.4453V43H78.8814ZM82.6811 12.2116C81.5565 12.2116 80.5918 11.8388 79.7869 11.093C78.9938 10.3355 78.5973 9.42992 78.5973 8.37642C78.5973 7.33475 78.9938 6.44105 79.7869 5.69531C80.5918 4.93774 81.5565 4.55895 82.6811 4.55895C83.8056 4.55895 84.7644 4.93774 85.5575 5.69531C86.3624 6.44105 86.7649 7.33475 86.7649 8.37642C86.7649 9.42992 86.3624 10.3355 85.5575 11.093C84.7644 11.8388 83.8056 12.2116 82.6811 12.2116ZM105.411 15.7273V21.4091H88.9868V15.7273H105.411ZM92.7155 9.19318H100.279V34.6193C100.279 35.3177 100.386 35.8622 100.599 36.2528C100.812 36.6316 101.108 36.898 101.487 37.0518C101.877 37.2057 102.327 37.2827 102.836 37.2827C103.191 37.2827 103.546 37.2531 103.902 37.1939C104.257 37.1229 104.529 37.0696 104.718 37.0341L105.908 42.6626C105.529 42.781 104.996 42.9171 104.31 43.071C103.623 43.2367 102.789 43.3374 101.806 43.3729C99.9835 43.4439 98.3855 43.2012 97.0124 42.6449C95.6511 42.0885 94.5917 41.2244 93.8341 40.0526C93.0765 38.8807 92.7036 37.401 92.7155 35.6136V9.19318ZM120.874 43.5327C118.069 43.5327 115.654 42.9645 113.63 41.8281C111.617 40.6799 110.067 39.0582 108.978 36.9631C107.889 34.8561 107.344 32.3643 107.344 29.4879C107.344 26.6825 107.889 24.2204 108.978 22.1016C110.067 19.9827 111.6 18.3314 113.576 17.1477C115.565 15.964 117.897 15.3722 120.572 15.3722C122.371 15.3722 124.046 15.6622 125.597 16.2422C127.16 16.8104 128.521 17.6686 129.681 18.8168C130.853 19.965 131.764 21.4091 132.415 23.1491C133.066 24.8774 133.392 26.9015 133.392 29.2216V31.299H110.363V26.6115H126.272C126.272 25.5225 126.035 24.5578 125.562 23.7173C125.088 22.8769 124.431 22.2199 123.591 21.7464C122.762 21.2611 121.797 21.0185 120.696 21.0185C119.548 21.0185 118.53 21.2848 117.642 21.8175C116.767 22.3383 116.08 23.0426 115.583 23.9304C115.086 24.8063 114.831 25.7829 114.819 26.8601V31.3168C114.819 32.6662 115.068 33.8321 115.565 34.8146C116.074 35.7971 116.79 36.5547 117.713 37.0874C118.637 37.62 119.732 37.8864 120.998 37.8864C121.839 37.8864 122.608 37.768 123.307 37.5312C124.005 37.2945 124.603 36.9394 125.1 36.4659C125.597 35.9924 125.976 35.4124 126.236 34.7259L133.232 35.1875C132.877 36.8684 132.149 38.3362 131.048 39.5909C129.959 40.8338 128.55 41.8045 126.822 42.5028C125.106 43.1894 123.123 43.5327 120.874 43.5327ZM137.545 43V15.7273H141.593V19.9886H141.948C142.516 18.5327 143.434 17.4022 144.7 16.5973C145.967 15.7805 147.488 15.3722 149.263 15.3722C151.063 15.3722 152.56 15.7805 153.756 16.5973C154.963 17.4022 155.904 18.5327 156.579 19.9886H156.863C157.561 18.58 158.609 17.4614 160.006 16.6328C161.402 15.7924 163.077 15.3722 165.03 15.3722C167.469 15.3722 169.463 16.1357 171.014 17.6626C172.565 19.1778 173.34 21.5393 173.34 24.7472V43H169.15V24.7472C169.15 22.7348 168.599 21.2966 167.498 20.4325C166.398 19.5684 165.101 19.1364 163.61 19.1364C161.692 19.1364 160.207 19.7164 159.153 20.8764C158.1 22.0246 157.573 23.4806 157.573 25.2443V43H153.312V24.321C153.312 22.7704 152.809 21.5215 151.802 20.5746C150.796 19.6158 149.5 19.1364 147.914 19.1364C146.825 19.1364 145.807 19.4264 144.86 20.0064C143.925 20.5864 143.167 21.3913 142.587 22.4212C142.019 23.4392 141.735 24.617 141.735 25.9545V43H137.545ZM187.427 43.6392C185.699 43.6392 184.131 43.3137 182.722 42.6626C181.313 41.9998 180.195 41.0469 179.366 39.804C178.538 38.5492 178.123 37.0341 178.123 35.2585C178.123 33.696 178.431 32.4295 179.047 31.4588C179.662 30.4763 180.485 29.7069 181.515 29.1506C182.544 28.5942 183.681 28.1799 184.924 27.9077C186.178 27.6236 187.439 27.3987 188.706 27.233C190.363 27.0199 191.706 26.8601 192.736 26.7536C193.778 26.6352 194.535 26.4399 195.009 26.1676C195.494 25.8954 195.737 25.4219 195.737 24.7472V24.6051C195.737 22.8532 195.257 21.492 194.299 20.5213C193.352 19.5507 191.913 19.0653 189.984 19.0653C187.984 19.0653 186.415 19.5033 185.279 20.3793C184.142 21.2552 183.343 22.1903 182.882 23.1847L178.904 21.7642C179.615 20.107 180.562 18.8168 181.745 17.8935C182.941 16.9583 184.243 16.3073 185.652 15.9403C187.072 15.5616 188.469 15.3722 189.842 15.3722C190.718 15.3722 191.724 15.4787 192.86 15.6918C194.009 15.893 195.115 16.3132 196.181 16.9524C197.258 17.5916 198.152 18.5563 198.862 19.8466C199.572 21.1368 199.927 22.8651 199.927 25.0312V43H195.737V39.3068H195.524C195.24 39.8987 194.766 40.532 194.103 41.2067C193.44 41.8814 192.559 42.4555 191.458 42.929C190.357 43.4025 189.013 43.6392 187.427 43.6392ZM188.066 39.875C189.724 39.875 191.12 39.5495 192.257 38.8984C193.405 38.2474 194.269 37.407 194.849 36.3771C195.441 35.3473 195.737 34.2642 195.737 33.1278V29.2926C195.559 29.5057 195.169 29.701 194.565 29.8786C193.973 30.0443 193.287 30.1922 192.505 30.3224C191.736 30.4408 190.984 30.5473 190.25 30.642C189.528 30.7249 188.942 30.7959 188.493 30.8551C187.404 30.9972 186.386 31.228 185.439 31.5476C184.503 31.8554 183.746 32.3229 183.166 32.9503C182.598 33.5658 182.314 34.4062 182.314 35.4716C182.314 36.9276 182.852 38.0284 183.929 38.7741C185.018 39.508 186.397 39.875 188.066 39.875ZM217.836 15.7273V19.2784H203.703V15.7273H217.836ZM207.822 9.19318H212.012V35.1875C212.012 36.3712 212.184 37.259 212.527 37.8509C212.882 38.4309 213.332 38.8215 213.877 39.0227C214.433 39.2121 215.019 39.3068 215.635 39.3068C216.096 39.3068 216.475 39.2831 216.771 39.2358C217.067 39.1766 217.304 39.1293 217.481 39.0938L218.333 42.858C218.049 42.9645 217.653 43.071 217.144 43.1776C216.635 43.2959 215.99 43.3551 215.208 43.3551C214.025 43.3551 212.865 43.1006 211.728 42.5916C210.604 42.0826 209.669 41.3073 208.923 40.2656C208.189 39.224 207.822 37.91 207.822 36.3239V9.19318ZM233.681 43.5682C231.053 43.5682 228.787 42.9882 226.881 41.8281C224.987 40.6562 223.525 39.0227 222.495 36.9276C221.477 34.8205 220.968 32.3703 220.968 29.5767C220.968 26.7831 221.477 24.321 222.495 22.1903C223.525 20.0478 224.957 18.3788 226.792 17.1832C228.639 15.9759 230.793 15.3722 233.255 15.3722C234.676 15.3722 236.078 15.6089 237.463 16.0824C238.848 16.5559 240.109 17.3253 241.245 18.3906C242.382 19.4441 243.287 20.8409 243.962 22.581C244.636 24.321 244.974 26.4635 244.974 29.0085V30.7841H223.951V27.1619H240.712C240.712 25.6231 240.405 24.25 239.789 23.0426C239.185 21.8352 238.321 20.8823 237.197 20.1839C236.084 19.4856 234.77 19.1364 233.255 19.1364C231.586 19.1364 230.142 19.5507 228.923 20.3793C227.715 21.196 226.786 22.2614 226.135 23.5753C225.484 24.8892 225.158 26.2978 225.158 27.8011V30.2159C225.158 32.2756 225.514 34.0215 226.224 35.4538C226.946 36.8743 227.946 37.9574 229.225 38.7031C230.503 39.437 231.989 39.804 233.681 39.804C234.782 39.804 235.776 39.6501 236.664 39.3423C237.564 39.0227 238.339 38.5492 238.99 37.9219C239.641 37.2827 240.144 36.4896 240.499 35.5426L244.548 36.679C244.122 38.0521 243.405 39.2595 242.399 40.3011C241.393 41.331 240.15 42.1359 238.671 42.7159C237.191 43.2841 235.528 43.5682 233.681 43.5682Z" fill="white"/>
<path d="M255.127 43V39.804L267.13 26.6648C268.539 25.1259 269.699 23.7884 270.61 22.652C271.522 21.5038 272.197 20.4266 272.635 19.4205C273.084 18.4025 273.309 17.3371 273.309 16.2244C273.309 14.946 273.002 13.8393 272.386 12.9041C271.782 11.969 270.954 11.2469 269.9 10.7379C268.847 10.2289 267.663 9.97443 266.349 9.97443C264.952 9.97443 263.733 10.2644 262.691 10.8445C261.662 11.4126 260.863 12.2116 260.294 13.2415C259.738 14.2713 259.46 15.4787 259.46 16.8636H255.27C255.27 14.733 255.761 12.8627 256.743 11.2528C257.726 9.64299 259.063 8.38826 260.756 7.48863C262.461 6.58901 264.372 6.1392 266.491 6.1392C268.622 6.1392 270.51 6.58901 272.155 7.48863C273.801 8.38826 275.091 9.60156 276.026 11.1286C276.961 12.6555 277.429 14.3542 277.429 16.2244C277.429 17.562 277.186 18.87 276.701 20.1484C276.227 21.415 275.399 22.8295 274.215 24.392C273.043 25.9427 271.415 27.8366 269.332 30.0739L261.164 38.8097V39.0938H278.068V43H255.127Z" fill="#E6007E"/>
</svg>
