<?xml version="1.0" encoding="UTF-8"?>
<svg width="161px" height="25px" viewBox="0 0 161 25" version="1.1" xmlns="http://www.w3.org/2000/svg" xmlns:xlink="http://www.w3.org/1999/xlink">
    <!-- Generator: Sketch 51.2 (57519) - http://www.bohemiancoding.com/sketch -->
    <title>logo</title>
    <desc>Created with Sketch.</desc>
    <defs>
        <rect id="path-1" x="0" y="0" width="78" height="25"></rect>
        <linearGradient x1="50%" y1="25.8235844%" x2="50%" y2="100%" id="linearGradient-3">
            <stop stop-color="#E6E6E6" offset="0%"></stop>
            <stop stop-color="#CECECE" offset="17.2665282%"></stop>
            <stop stop-color="#E7E7E7" offset="32.4354227%"></stop>
            <stop stop-color="#909090" offset="100%"></stop>
        </linearGradient>
        <path d="M2.74972096,18.9921875 L6.35323659,18.9921875 C6.38578883,19.3958354 6.61039596,19.6725253 7.02706471,19.8222656 C7.44373346,19.972006 8.20544459,20.046875 9.31222096,20.046875 C10.45806,20.046875 11.2376746,19.9850267 11.6510881,19.8613281 C12.0645017,19.7376296 12.2712053,19.5065121 12.2712053,19.1679688 C12.2712053,18.8424463 12.0726396,18.6243495 11.6755022,18.5136719 C11.4932096,18.4615883 10.4873603,18.4257813 8.65792409,18.40625 C6.95218639,18.40625 5.90076461,18.3769534 5.50362721,18.3183594 C4.39685084,18.168619 3.64816041,17.8072945 3.25753346,17.234375 C2.96456325,16.8046854 2.81808034,16.2252641 2.81808034,15.4960938 C2.81808034,14.1028576 3.33239811,13.1946636 4.36104909,12.7714844 C5.13579254,12.4524724 6.79918737,12.2929688 9.35128346,12.2929688 C10.9593644,12.2929688 12.1279725,12.3531895 12.8571428,12.4736328 C13.5863131,12.5940761 14.1527137,12.823566 14.5563616,13.1621094 C14.8037587,13.3704437 14.9811657,13.6210923 15.0885881,13.9140625 C15.1960106,14.2070327 15.2725072,14.6399711 15.3180803,15.2128906 L11.7145647,15.2128906 C11.6494602,14.9785145 11.5680808,14.8287764 11.4704241,14.7636719 C11.1774539,14.5813793 10.4352738,14.4902344 9.24386159,14.4902344 C8.13708522,14.4902344 7.37862926,14.5455724 6.96847096,14.65625 C6.55831266,14.7669276 6.35323659,14.9687485 6.35323659,15.2617188 C6.35323659,15.6458353 6.63643688,15.8574217 7.20284596,15.8964844 C7.64555651,15.9290366 9.25361334,15.955078 12.0270647,15.9746094 C13.3551964,15.9811198 14.3154732,16.205727 14.9079241,16.6484375 C15.5068854,17.0846376 15.8063616,17.8430936 15.8063616,18.9238281 C15.8063616,19.6399775 15.6891753,20.2210264 15.4547991,20.6669922 C15.2204229,21.112958 14.8525881,21.4466135 14.3512835,21.6679688 C13.517946,22.0520853 11.7536407,22.2441406 9.05831471,22.2441406 C7.33304567,22.2441406 6.09607887,22.1774095 5.34737721,22.0439453 C4.59867555,21.9104811 4.00948873,21.6484395 3.57979909,21.2578125 C3.04594225,20.7760393 2.76925231,20.0208385 2.74972096,18.9921875 Z M16.8404018,25.9355469 L16.8404018,12.5371094 L20.1704799,12.5371094 L20.1704799,13.8164062 L20.3657924,13.8164062 C20.6652731,13.2304658 21.1226253,12.8300792 21.7378627,12.6152344 C22.3531002,12.4003896 23.341046,12.2929688 24.7017299,12.2929688 C25.9191839,12.2929688 26.8729504,12.3727206 27.563058,12.5322266 C28.2531656,12.6917326 28.8000352,12.9570294 29.203683,13.328125 C29.5812891,13.6731788 29.838448,14.1240207 29.9751674,14.6806641 C30.1118868,15.2373075 30.1802455,16.1145773 30.1802455,17.3125 C30.1802455,18.1132853 30.1493213,18.738279 30.0874721,19.1875 C30.0256228,19.636721 29.9165744,20.0468731 29.7603236,20.4179688 C29.4673534,21.1080764 28.9432701,21.5849596 28.188058,21.8486328 C27.4328459,22.112306 26.2186653,22.2441406 24.5454799,22.2441406 C23.3410468,22.2441406 22.4588942,22.1416026 21.8989955,21.9365234 C21.3390969,21.7314443 20.8866275,21.345706 20.5415736,20.7792969 L20.375558,20.7792969 L20.375558,25.9355469 L16.8404018,25.9355469 Z M23.6372768,14.9589844 C22.1528943,14.9589844 21.23819,15.1087225 20.8931361,15.4082031 C20.5480823,15.7076838 20.375558,16.3619741 20.375558,17.3710938 C20.375558,17.911461 20.4243857,18.3199856 20.5220424,18.5966797 C20.6196991,18.8733738 20.7889683,19.0800774 21.0298549,19.2167969 C21.4400132,19.4576835 22.2733382,19.578125 23.5298549,19.578125 C24.8319447,19.578125 25.6782904,19.447918 26.0689174,19.1875 C26.2902727,19.0377597 26.4416383,18.8147801 26.523019,18.5185547 C26.6043996,18.2223292 26.6450893,17.7584667 26.6450893,17.1269531 C26.6450893,16.5475231 26.5962616,16.1308606 26.4986049,15.8769531 C26.4009482,15.6230456 26.2154031,15.4244799 25.9419643,15.28125 C25.5383164,15.0729156 24.7700949,14.9654948 23.6372768,14.9589844 Z M31.2435826,12.5371094 L34.5736607,12.5371094 L34.5736607,13.9628906 L34.749442,13.9628906 C35.0814749,13.3574188 35.5258064,12.9277356 36.0824498,12.6738281 C36.6390932,12.4199206 37.4154526,12.2929688 38.4115513,12.2929688 C39.8373397,12.2929688 40.8301683,12.5729139 41.390067,13.1328125 C41.9499656,13.6927111 42.2299107,14.6855397 42.2299107,16.1113281 C42.2299107,16.195964 42.2234003,16.4075504 42.2103795,16.7460938 L38.8803013,16.7460938 C38.8803013,16.1927056 38.8217082,15.8053396 38.7045201,15.5839844 C38.4766544,15.1673156 37.9135089,14.9589844 37.015067,14.9589844 C36.175219,14.9589844 35.5795218,15.1868467 35.2279576,15.6425781 C35.0521754,15.8704438 34.9333615,16.1520166 34.8715123,16.4873047 C34.809663,16.8225928 34.7787388,17.3515589 34.7787388,18.0742188 L34.7787388,22 L31.2435826,22 L31.2435826,12.5371094 Z M42.922154,12.5371094 L46.4573103,12.5371094 L46.4573103,22 L42.922154,22 L42.922154,12.5371094 Z M42.922154,8.66992188 L46.4573103,8.66992188 L46.4573103,11.3261719 L42.922154,11.3261719 L42.922154,8.66992188 Z M48.8487723,10.359375 L52.3839286,10.359375 L52.3839286,12.5371094 L57.9796317,12.5371094 L57.9796317,15.0664062 L52.3839286,15.0664062 L52.3839286,17.8203125 C52.3839286,18.5625037 52.4360114,19.0279938 52.5401786,19.2167969 C52.7159607,19.5423193 53.1326232,19.7050781 53.7901786,19.7050781 C54.4737757,19.7050781 54.8969486,19.5488297 55.0597098,19.2363281 C55.1248143,19.1126296 55.1638764,18.9905605 55.1768973,18.8701172 C55.1899182,18.7496739 55.1964286,18.4420598 55.1964286,17.9472656 L58.4288504,17.9472656 C58.4158295,18.8522181 58.3621191,19.5065084 58.2677176,19.9101562 C58.1733161,20.3138041 57.9893987,20.6881493 57.7159598,21.0332031 C57.3643956,21.4824241 56.8777468,21.7965486 56.2559989,21.9755859 C55.634251,22.1546233 54.7114086,22.2441406 53.4874442,22.2441406 C52.354626,22.2441406 51.5131631,22.1822923 50.9630301,22.0585938 C50.4128972,21.9348952 49.9653105,21.7037777 49.6202567,21.3652344 C49.3663492,21.1178373 49.1840593,20.8476577 49.0733817,20.5546875 C48.9627041,20.2617173 48.8943454,19.8580755 48.8683036,19.34375 C48.8552827,19.154947 48.8487723,18.6471396 48.8487723,17.8203125 L48.8487723,15.0664062 L46.9835379,15.0664062 L46.9835379,12.5371094 L48.8487723,12.5371094 L48.8487723,10.359375 Z M68.1933594,18.9726562 L71.71875,18.9726562 C71.6210933,20.0013072 71.3085964,20.7402321 70.78125,21.1894531 C70.3255186,21.5865905 69.6809937,21.8616529 68.8476562,22.0146484 C68.0143188,22.167644 66.7643312,22.2441406 65.0976562,22.2441406 C63.7239515,22.2441406 62.6692745,22.1774095 61.9335938,22.0439453 C61.197913,21.9104811 60.6152365,21.6809912 60.1855469,21.3554688 C59.7298154,21.0104149 59.4173186,20.5498076 59.2480469,19.9736328 C59.0787752,19.3974581 58.9941406,18.5104227 58.9941406,17.3125 C58.9941406,16.414058 59.0266924,15.738609 59.0917969,15.2861328 C59.1569014,14.8336566 59.280598,14.425132 59.4628906,14.0605469 C59.8404967,13.3053348 60.5240836,12.8138032 61.5136719,12.5859375 C62.3600303,12.390624 63.6751213,12.2929688 65.4589844,12.2929688 C67.0345131,12.2929688 68.144528,12.3483067 68.7890625,12.4589844 C69.9349016,12.6542979 70.7226541,13.0823535 71.1523438,13.7431641 C71.5820334,14.4039747 71.796875,15.5156172 71.796875,17.078125 C71.796875,17.2278653 71.7903646,17.5468726 71.7773438,18.0351562 L62.5292969,18.0351562 C62.5292969,18.5169295 62.560221,18.8619781 62.6220703,19.0703125 C62.6839196,19.2786469 62.8059887,19.4511712 62.9882812,19.5878906 C63.3398455,19.8483086 64.1341084,19.9785156 65.3710938,19.9785156 C66.1588581,19.9785156 66.7496725,19.9475915 67.1435547,19.8857422 C67.5374369,19.8238929 67.8059889,19.7213549 67.9492188,19.578125 C68.0664068,19.4609369 68.1477862,19.259116 68.1933594,18.9726562 Z M68.2421875,16.1015625 C68.2291666,15.7304669 68.2047528,15.4749356 68.1689453,15.3349609 C68.1331378,15.1949863 68.0631516,15.069662 67.9589844,14.9589844 C67.6529933,14.6464828 66.8359441,14.4902344 65.5078125,14.4902344 C64.3164003,14.4902344 63.5286478,14.5944 63.1445312,14.8027344 C62.7604147,15.0110687 62.5553387,15.4440071 62.5292969,16.1015625 L68.2421875,16.1015625 Z M72.8504464,12.5371094 L76.1805246,12.5371094 L76.1805246,13.953125 L76.3563058,13.953125 C76.8641208,12.8463486 78.1434049,12.2929688 80.1941964,12.2929688 C81.333525,12.2929688 82.2384639,12.4475896 82.9090402,12.7568359 C83.5796165,13.0660823 84.1069549,13.5722621 84.4910714,14.2753906 C84.7775312,13.5722621 85.2381386,13.0660823 85.8729074,12.7568359 C86.5076762,12.4475896 87.4077323,12.2929688 88.5731027,12.2929688 C89.5496701,12.2929688 90.3488157,12.3889964 90.9705636,12.5810547 C91.5923115,12.7731129 92.1050017,13.0839822 92.5086496,13.5136719 C92.9122974,13.9368511 93.1792218,14.4137343 93.3094308,14.9443359 C93.4396398,15.4749375 93.5047433,16.3522074 93.5047433,17.5761719 L93.5047433,22 L89.9695871,22 L89.9695871,17.5761719 C89.9695871,16.8860643 89.9435457,16.4042982 89.8914621,16.1308594 C89.8393785,15.8574205 89.7319577,15.6393237 89.5691964,15.4765625 C89.2241426,15.1315087 88.5600868,14.9589844 87.5770089,14.9589844 C86.5418475,14.9589844 85.8419847,15.1575501 85.4773996,15.5546875 C85.2755756,15.7760428 85.1372307,16.0624982 85.0623605,16.4140625 C84.9874903,16.7656268 84.9500558,17.325517 84.9500558,18.09375 L84.9500558,22 L81.4148996,22 L81.4148996,17.5761719 C81.4148996,16.8404911 81.3937409,16.3505872 81.351423,16.1064453 C81.3091051,15.8623035 81.206567,15.6555998 81.0438058,15.4863281 C80.7182833,15.1347639 80.063993,14.9589844 79.0809152,14.9589844 C78.019712,14.9589844 77.2970629,15.1510397 76.9129464,15.5351562 C76.7111225,15.7434906 76.5727775,16.0266909 76.4979074,16.3847656 C76.4230372,16.7428403 76.3856027,17.3124961 76.3856027,18.09375 L76.3856027,22 L72.8504464,22 L72.8504464,12.5371094 Z M98.3669085,15.5058594 L94.8415179,15.5058594 C94.887091,14.7701786 95.0433394,14.2135436 95.3102679,13.8359375 C95.7334471,13.2304657 96.389365,12.8203136 97.2780413,12.6054688 C98.1667176,12.3906239 99.6689812,12.2832031 101.784877,12.2832031 C103.340875,12.2832031 104.402062,12.3417963 104.968471,12.4589844 C105.53488,12.5761725 106.016646,12.8333313 106.413783,13.2304688 C106.726285,13.5429703 106.939499,13.9189431 107.053432,14.3583984 C107.167365,14.7978538 107.22433,15.4472613 107.22433,16.3066406 L107.22433,22 L103.825893,22 L103.825893,20.7109375 L103.659877,20.7109375 C103.399459,21.2578152 102.986052,21.6549467 102.419643,21.9023438 C102.120162,22.0325527 101.700245,22.1220701 101.159877,22.1708984 C100.61951,22.2197268 99.7601435,22.2441406 98.5817522,22.2441406 C97.6312267,22.2441406 96.8988121,22.1839199 96.3844866,22.0634766 C95.8701611,21.9430333 95.4567538,21.7363296 95.1442522,21.4433594 C94.6885208,21.0071593 94.4606585,20.2942758 94.4606585,19.3046875 C94.4606585,18.2044216 94.7308381,17.4101587 95.2712054,16.921875 C95.700895,16.5377585 96.2672956,16.28711 96.9704241,16.1699219 C97.6735526,16.0527338 98.9691126,15.9941406 100.857143,15.9941406 C101.670949,15.9941406 102.251998,16.0413407 102.600307,16.1357422 C102.948616,16.2301437 103.259485,16.430337 103.532924,16.7363281 L103.689174,16.7363281 L103.689174,16.2382812 C103.689174,15.49609 103.552457,15.0305999 103.279018,14.8417969 C103.005579,14.6529938 102.331758,14.5585938 101.257533,14.5585938 C99.9879959,14.5585938 99.2034985,14.6074214 98.9040179,14.7050781 C98.6045372,14.8027349 98.4255025,15.0696593 98.3669085,15.5058594 Z M100.73019,18.0058594 C99.5387775,18.0058594 98.7998526,18.0774732 98.5133929,18.2207031 C98.1683391,18.3899748 97.9958147,18.6471337 97.9958147,18.9921875 C97.9958147,19.376304 98.1650839,19.6367181 98.5036272,19.7734375 C98.8421706,19.9101569 99.4866954,19.9785156 100.437221,19.9785156 C101.674206,19.9785156 102.514042,19.9036466 102.956752,19.7539062 C103.399463,19.6041659 103.620815,19.3209656 103.620815,18.9042969 C103.620815,18.5266908 103.428759,18.2662768 103.044643,18.1230469 C102.868861,18.0579424 102.097384,18.0188803 100.73019,18.0058594 Z M109.547433,10.359375 L113.082589,10.359375 L113.082589,12.5371094 L118.678292,12.5371094 L118.678292,15.0664062 L113.082589,15.0664062 L113.082589,17.8203125 C113.082589,18.5625037 113.134672,19.0279938 113.238839,19.2167969 C113.414621,19.5423193 113.831284,19.7050781 114.488839,19.7050781 C115.172436,19.7050781 115.595609,19.5488297 115.758371,19.2363281 C115.823475,19.1126296 115.862537,18.9905605 115.875558,18.8701172 C115.888579,18.7496739 115.895089,18.4420598 115.895089,17.9472656 L119.127511,17.9472656 C119.11449,18.8522181 119.06078,19.5065084 118.966378,19.9101562 C118.871977,20.3138041 118.688059,20.6881493 118.414621,21.0332031 C118.063056,21.4824241 117.576408,21.7965486 116.95466,21.9755859 C116.332912,22.1546233 115.410069,22.2441406 114.186105,22.2441406 C113.053287,22.2441406 112.211824,22.1822923 111.661691,22.0585938 C111.111558,21.9348952 110.663971,21.7037777 110.318917,21.3652344 C110.06501,21.1178373 109.88272,20.8476577 109.772042,20.5546875 C109.661365,20.2617173 109.593006,19.8580755 109.566964,19.34375 C109.553943,19.154947 109.547433,18.6471396 109.547433,17.8203125 L109.547433,15.0664062 L107.682199,15.0664062 L107.682199,12.5371094 L109.547433,12.5371094 L109.547433,10.359375 Z M128.89202,18.9726562 L132.417411,18.9726562 C132.319754,20.0013072 132.007257,20.7402321 131.479911,21.1894531 C131.024179,21.5865905 130.379654,21.8616529 129.546317,22.0146484 C128.712979,22.167644 127.462992,22.2441406 125.796317,22.2441406 C124.422612,22.2441406 123.367935,22.1774095 122.632254,22.0439453 C121.896574,21.9104811 121.313897,21.6809912 120.884208,21.3554688 C120.428476,21.0104149 120.115979,20.5498076 119.946708,19.9736328 C119.777436,19.3974581 119.692801,18.5104227 119.692801,17.3125 C119.692801,16.414058 119.725353,15.738609 119.790458,15.2861328 C119.855562,14.8336566 119.979259,14.425132 120.161551,14.0605469 C120.539157,13.3053348 121.222744,12.8138032 122.212333,12.5859375 C123.058691,12.390624 124.373782,12.2929688 126.157645,12.2929688 C127.733174,12.2929688 128.843189,12.3483067 129.487723,12.4589844 C130.633562,12.6542979 131.421315,13.0823535 131.851004,13.7431641 C132.280694,14.4039747 132.495536,15.5156172 132.495536,17.078125 C132.495536,17.2278653 132.489025,17.5468726 132.476004,18.0351562 L123.227958,18.0351562 C123.227958,18.5169295 123.258882,18.8619781 123.320731,19.0703125 C123.38258,19.2786469 123.504649,19.4511712 123.686942,19.5878906 C124.038506,19.8483086 124.832769,19.9785156 126.069754,19.9785156 C126.857519,19.9785156 127.448333,19.9475915 127.842215,19.8857422 C128.236098,19.8238929 128.50465,19.7213549 128.647879,19.578125 C128.765068,19.4609369 128.846447,19.259116 128.89202,18.9726562 Z M128.940848,16.1015625 C128.927827,15.7304669 128.903414,15.4749356 128.867606,15.3349609 C128.831799,15.1949863 128.761812,15.069662 128.657645,14.9589844 C128.351654,14.6464828 127.534605,14.4902344 126.206473,14.4902344 C125.015061,14.4902344 124.227308,14.5944 123.843192,14.8027344 C123.459075,15.0110687 123.253999,15.4440071 123.227958,16.1015625 L128.940848,16.1015625 Z" id="path-4"></path>
        <filter x="-1.9%" y="-8.7%" width="103.9%" height="140.5%" filterUnits="objectBoundingBox" id="filter-5">
            <feOffset dx="0" dy="1" in="SourceAlpha" result="shadowOffsetOuter1"></feOffset>
            <feColorMatrix values="0 0 0 0 0.372289541   0 0 0 0 0.372289541   0 0 0 0 0.372289541  0 0 0 1 0" type="matrix" in="shadowOffsetOuter1" result="shadowMatrixOuter1"></feColorMatrix>
            <feOffset dx="0" dy="2" in="SourceAlpha" result="shadowOffsetOuter2"></feOffset>
            <feGaussianBlur stdDeviation="0.5" in="shadowOffsetOuter2" result="shadowBlurOuter2"></feGaussianBlur>
            <feColorMatrix values="0 0 0 0 0   0 0 0 0 0   0 0 0 0 0  0 0 0 0.712098053 0" type="matrix" in="shadowBlurOuter2" result="shadowMatrixOuter2"></feColorMatrix>
            <feMerge>
                <feMergeNode in="shadowMatrixOuter1"></feMergeNode>
                <feMergeNode in="shadowMatrixOuter2"></feMergeNode>
            </feMerge>
        </filter>
        <filter x="-1.2%" y="-2.9%" width="102.3%" height="129.0%" filterUnits="objectBoundingBox" id="filter-6">
            <feOffset dx="0" dy="1" in="SourceAlpha" result="shadowOffsetInner1"></feOffset>
            <feComposite in="shadowOffsetInner1" in2="SourceAlpha" operator="arithmetic" k2="-1" k3="1" result="shadowInnerInner1"></feComposite>
            <feColorMatrix values="0 0 0 0 1   0 0 0 0 1   0 0 0 0 1  0 0 0 0.5 0" type="matrix" in="shadowInnerInner1"></feColorMatrix>
        </filter>
    </defs>
    <g id="Page-1" stroke="none" stroke-width="1" fill="none" fill-rule="evenodd">
        <g id="logo" transform="translate(-1.000000, -5.000000)">
            <g id="Group-Copy" stroke-width="1" fill-rule="evenodd" transform="translate(84.000000, 5.000000)">
                <mask id="mask-2" fill="white">
                    <use xlink:href="#path-1"></use>
                </mask>
                <g id="Mask"></g>
                <g id="Group" mask="url(#mask-2)" fill-rule="nonzero">
                    <g transform="translate(44.000000, 18.500000) rotate(-45.000000) translate(-44.000000, -18.500000) translate(4.000000, -4.000000)">
                        <polygon id="polygon7" fill="#E2001A" points="0 0 0 0 80 0 80 9 0 9"></polygon>
                        <polygon id="polygon9" fill="#E95E38" points="0 9 0 9 80 9 80 18 0 18"></polygon>
                        <polygon id="polygon11" fill="#FFCC00" points="0 18 0 18 80 18 80 27 0 27"></polygon>
                        <polygon id="polygon13" fill="#57AB27" points="0 27 0 27 80 27 80 36 0 36"></polygon>
                        <polygon id="polygon15" fill="#009EE0" points="0 36 0 36 80 36 80 45 0 45"></polygon>
                    </g>
                </g>
            </g>
            <g id="spritemate-copy">
                <use fill="black" fill-opacity="1" filter="url(#filter-5)" xlink:href="#path-4"></use>
                <use fill="url(#linearGradient-3)" fill-rule="evenodd" xlink:href="#path-4"></use>
                <use fill="black" fill-opacity="1" filter="url(#filter-6)" xlink:href="#path-4"></use>
            </g>
        </g>
    </g>
</svg>