<?xml version="1.0" standalone="no"?>
<!DOCTYPE svg PUBLIC "-//W3C//DTD SVG 20010904//EN"
 "http://www.w3.org/TR/2001/REC-SVG-20010904/DTD/svg10.dtd">
<svg version="1.0" xmlns="http://www.w3.org/2000/svg"
 width="260.000000pt" height="260.000000pt" viewBox="0 0 260.000000 260.000000"
 preserveAspectRatio="xMidYMid meet">
<metadata>
Created by potrace 1.11, written by Peter Selinger 2001-2013
</metadata>
<g transform="translate(0.000000,260.000000) scale(0.100000,-0.100000)"
fill="#000000" stroke="none">
<path d="M0 1300 l0 -1300 1300 0 1300 0 0 1300 0 1300 -1300 0 -1300 0 0
-1300z m1040 615 l0 -195 -65 0 -65 0 0 -65 0 -65 -130 0 -130 0 0 -65 0 -65
130 0 130 0 0 -65 0 -65 65 0 65 0 0 -65 0 -65 -325 0 -325 0 0 65 0 65 -65 0
-65 0 0 195 0 195 65 0 65 0 0 65 0 65 65 0 65 0 0 65 0 65 65 0 65 0 0 65 0
65 195 0 195 0 0 -195z m390 130 l0 -65 65 0 65 0 0 -65 0 -65 65 0 65 0 0
-195 0 -195 65 0 65 0 0 195 0 195 130 0 130 0 0 -65 0 -65 65 0 65 0 0 -65 0
-65 65 0 65 0 0 -195 0 -195 -520 0 -520 0 0 -65 0 -65 520 0 520 0 0 -65 0
-65 -520 0 -520 0 0 -195 0 -195 -65 0 -65 0 0 780 0 780 130 0 130 0 0 -65z
m-390 -1040 l0 -65 -260 0 -260 0 0 -65 0 -65 -65 0 -65 0 0 65 0 65 -65 0
-65 0 0 65 0 65 390 0 390 0 0 -65z"/>
<path d="M390 1525 l0 -65 65 0 65 0 0 65 0 65 -65 0 -65 0 0 -65z"/>
</g>
</svg>
